PathFileType	4	(X/Y/Z)	C:\Users\°ÂÌØÂü\Desktop\20201223\Trimmed_bx_y_0_501.trc
DataRate	CameraRate	NumFrames	NumMarkers	Units	OrigDataRate	OrigDataStartFrame	OrigNumFrames
50.00	50.00	      4	43	mm	50.00	327	      1306
Frame#	Time	Top.Head			R.Acromium			L.Acromium			Sternum			R.ASIS			L.ASIS			V.Sacral			R.Thigh.Upper			R.Thigh.Front			R.Thigh.Rear			R.Knee.Lat			R.Knee.Med			R.Shank.Upper			R.Shank.Front			R.Shank.Rear			R.Ankle.Lat			R.Midfoot.Lat			R.Toe.Lat			R.Toe.Tip			R.Toe.Med			R.Ankle.Med			R.Midfoot.Sup			R.Heel			L.Thigh.Upper			L.Thigh.Front			L.Thigh.Rear			L.Knee.Lat			L.Knee.Med			L.Shank.Upper			L.Shank.Front			L.Shank.Rear			L.Ankle.Lat			L.Midfoot.Lat			L.Toe.Lat			L.Toe.Tip			L.Toe.Med			L.Ankle.Med			L.Midfoot.Sup			L.Heel			origin1 front left			origin2 front right			origin 3 back right			origin 4 back leftt			
		X1	Y1	Z1	X2	Y2	Z2	X3	Y3	Z3	X4	Y4	Z4	X5	Y5	Z5	X6	Y6	Z6	X7	Y7	Z7	X8	Y8	Z8	X9	Y9	Z9	X10	Y10	Z10	X11	Y11	Z11	X12	Y12	Z12	X13	Y13	Z13	X14	Y14	Z14	X15	Y15	Z15	X16	Y16	Z16	X17	Y17	Z17	X18	Y18	Z18	X19	Y19	Z19	X20	Y20	Z20	X21	Y21	Z21	X22	Y22	Z22	X23	Y23	Z23	X24	Y24	Z24	X25	Y25	Z25	X26	Y26	Z26	X27	Y27	Z27	X28	Y28	Z28	X29	Y29	Z29	X30	Y30	Z30	X31	Y31	Z31	X32	Y32	Z32	X33	Y33	Z33	X34	Y34	Z34	X35	Y35	Z35	X36	Y36	Z36	X37	Y37	Z37	X38	Y38	Z38	X39	Y39	Z39	X40	Y40	Z40	X41	Y41	Z41	X42	Y42	Z42	X43	Y43	Z43	

327	6.520	-281.14862	222.75314	1668.45935	-428.01495	41.12447	1398.80530	-427.02643	432.22882	1405.92090	-439.11066	252.95325	1259.66284	-654.84857	150.52519	1034.83154	-637.55853	381.04178	1041.33936	-828.66174	257.51895	1072.06201	-693.24249	98.83199	886.40491	-638.27594	152.82533	838.81042	-728.97876	91.88403	741.49506	-731.65955	123.45710	590.17767	-695.73969	228.80295	554.09784	-748.10602	124.61241	532.09827	-664.18176	167.37874	543.93103	-772.74585	126.85406	459.45383	-692.57434	143.32523	211.54031	-617.01331	77.42003	165.76485	-571.45251	51.54319	160.94768	-492.78589	92.77055	161.71661	-532.44073	144.68747	164.92499	-639.80487	216.28275	222.49538	-593.84094	188.92992	171.10580	-718.40961	212.37907	169.65152	-681.23724	438.95892	877.48828	-628.81250	376.87228	832.80579	-709.12042	447.50662	741.48505	-729.84961	421.58365	615.27478	-683.08771	317.97958	569.02521	-725.87787	419.82480	555.22052	-666.95746	377.66269	538.41687	-765.93823	425.33923	495.14038	-684.30603	418.06516	210.22879	-585.71356	468.73953	163.57610	-546.97821	479.20544	160.77357	-489.40121	426.27988	168.28825	-526.09436	387.20847	177.47763	-648.71906	329.89667	209.61160	-596.46564	350.26361	170.35052	-732.72900	345.19989	163.97507	-444.16876	448.58377	147.88980	-450.34546	75.75497	143.79431	-806.47260	82.72499	142.68880	-798.96777	457.94919	145.63339	
328	6.540	-284.77209	223.23920	1672.30688	-429.37787	41.52044	1401.38745	-428.70044	432.78839	1408.42041	-440.33557	253.19499	1261.44507	-653.28619	151.36969	1035.26343	-637.17065	380.39053	1041.30798	-828.31470	257.25131	1072.14966	-692.05804	98.88486	886.55725	-637.24036	152.96866	838.96619	-728.04352	91.79482	741.80444	-730.97253	123.51521	590.28241	-695.28400	228.76944	554.13116	-747.48077	124.61693	532.28003	-663.69336	167.40445	543.88843	-772.24884	126.85915	459.49640	-692.53174	143.30753	211.61824	-616.99146	77.44096	165.77365	-571.41705	51.54689	160.98265	-492.78549	92.77413	161.69508	-532.44110	144.70851	164.86795	-639.78986	216.26593	222.31285	-593.85242	188.99191	170.94662	-718.37463	212.42445	169.65329	-680.37836	438.91229	877.70331	-628.02893	376.95056	832.97345	-708.37750	447.37750	741.64404	-729.23059	421.62640	615.44061	-682.40948	317.77640	569.22040	-725.39557	419.66779	555.14551	-666.46033	377.61334	538.46033	-765.53888	425.22192	495.28485	-684.28235	417.97375	210.27431	-585.70331	468.69724	163.62044	-546.99139	479.20834	160.75604	-489.27182	426.24603	168.33929	-526.08148	387.19211	177.46858	-648.62146	329.90622	209.67938	-596.43610	350.24393	170.29639	-732.71637	345.15823	163.96010	-444.16599	448.58017	147.91010	-450.35489	75.75330	143.75615	-806.43787	82.70605	142.68263	-798.94226	457.96155	145.64590	
329	6.560	-288.63757	223.75183	1676.31250	-430.79880	41.93784	1404.08447	-430.48486	433.51089	1411.13892	-441.58374	253.43446	1263.28076	-651.62036	152.26515	1035.71802	-636.79590	379.70734	1041.25671	-827.94714	256.97931	1072.24902	-690.81421	98.99945	886.67987	-636.14319	153.12564	839.10767	-727.09119	91.67279	742.12256	-730.26489	123.54684	590.42285	-694.73523	228.83165	554.14606	-746.86121	124.62862	532.45801	-663.19635	167.45776	543.85645	-771.78070	126.87930	459.61737	-692.53406	143.34366	211.65625	-616.95868	77.45647	165.78392	-571.40149	51.54630	161.01353	-492.77277	92.77206	161.67635	-532.43982	144.72575	164.82303	-639.92786	216.20729	222.02161	-593.81470	188.99315	170.88353	-718.33490	212.48117	169.63470	-679.44257	438.91959	877.94574	-627.15350	377.03818	833.10272	-707.57727	447.18619	741.77557	-728.59857	421.74377	615.65796	-681.87689	317.63531	569.33234	-724.90875	419.50156	555.05225	-665.95715	377.55411	538.48370	-765.14996	425.05975	495.52576	-684.25623	417.87296	210.29318	-585.71289	468.64575	163.65579	-547.00348	479.21811	160.74306	-489.13470	426.24695	168.44318	-526.06616	387.18744	177.47491	-648.50934	329.88425	209.78062	-596.39166	350.18228	170.24132	-732.69293	345.09167	163.94675	-444.16895	448.60031	147.92001	-450.35114	75.73872	143.73523	-806.39221	82.66591	142.66748	-798.91522	457.97128	145.64664	
330	6.580	-292.77640	224.29619	1680.46289	-432.31342	42.34727	1406.88574	-432.39648	434.27954	1414.02966	-442.85477	253.67137	1265.16968	-649.86841	153.19550	1036.19531	-636.42676	379.00452	1041.19385	-827.55872	256.70306	1072.36011	-689.50592	99.12601	886.82471	-634.98804	153.28188	839.24792	-726.03345	91.60889	742.36865	-729.53851	123.55318	590.55688	-694.09271	228.98543	554.20813	-746.25574	124.65933	532.59296	-662.64221	167.50029	543.85553	-771.29797	126.87446	459.84073	-692.55981	143.42001	211.67189	-616.92664	77.46447	165.79588	-571.40369	51.54736	161.03047	-492.75314	92.76591	161.66545	-532.43097	144.73882	164.80173	-640.16980	216.12717	221.66551	-593.75043	188.95639	170.88559	-718.30115	212.54071	169.59619	-678.42072	438.92596	878.16272	-626.19653	377.09024	833.21442	-706.72784	447.01624	741.92944	-727.97888	421.84781	615.88831	-681.45227	317.58664	569.37726	-724.44720	419.37964	555.01807	-665.43933	377.49255	538.46844	-764.76794	424.91766	495.82095	-684.21576	417.79352	210.30547	-585.74908	468.62149	163.67418	-547.00562	479.22675	160.74419	-489.00992	426.29523	168.56602	-526.04218	387.18811	177.48634	-648.41724	329.81750	209.85878	-596.34772	350.09970	170.16811	-732.66058	345.02850	163.93959	-444.17917	448.62793	147.91451	-450.33810	75.72911	143.74463	-806.35205	82.62478	142.65581	-798.89087	457.97733	145.64677	
